<svg xmlns="http://www.w3.org/2000/svg" width="260" height="300" viewBox="0 0 260 300" role="img" aria-label="The FitPet desktop window: a speech bubble reading All tests passing. Lovely work. above the thriving pixel sprout">
<rect x="30" y="16" width="200" height="44" rx="12" fill="#f7f7f5" stroke="rgba(0,0,0,0.18)"/>
<path d="M124 59 L130 67 L136 59 Z" fill="#f7f7f5"/>
<text x="130" y="34" text-anchor="middle" font-family="ui-monospace, Menlo, monospace" font-size="12" fill="#22311f">All tests passing.</text>
<text x="130" y="50" text-anchor="middle" font-family="ui-monospace, Menlo, monospace" font-size="12" fill="#22311f">Lovely work.</text>
<rect x="114" y="92" width="8" height="8" fill="#ff9ec7"/><rect x="122" y="92" width="8" height="8" fill="#ffd166"/><rect x="130" y="92" width="8" height="8" fill="#ff9ec7"/><rect x="122" y="100" width="8" height="8" fill="#5a8a3a"/><rect x="106" y="108" width="8" height="8" fill="#4a9e34"/><rect x="114" y="108" width="8" height="8" fill="#6cc24a"/><rect x="122" y="108" width="8" height="8" fill="#6cc24a"/><rect x="130" y="108" width="8" height="8" fill="#6cc24a"/><rect x="138" y="108" width="8" height="8" fill="#6cc24a"/><rect x="146" y="108" width="8" height="8" fill="#4a9e34"/><rect x="90" y="116" width="8" height="8" fill="#9be36a"/><rect x="98" y="116" width="8" height="8" fill="#4a9e34"/><rect x="106" y="116" width="8" height="8" fill="#6cc24a"/><rect x="114" y="116" width="8" height="8" fill="#6cc24a"/><rect x="122" y="116" width="8" height="8" fill="#6cc24a"/><rect x="130" y="116" width="8" height="8" fill="#6cc24a"/><rect x="138" y="116" width="8" height="8" fill="#6cc24a"/><rect x="146" y="116" width="8" height="8" fill="#6cc24a"/><rect x="154" y="116" width="8" height="8" fill="#4a9e34"/><rect x="162" y="116" width="8" height="8" fill="#9be36a"/><rect x="82" y="124" width="8" height="8" fill="#9be36a"/><rect x="90" y="124" width="8" height="8" fill="#4a9e34"/><rect x="98" y="124" width="8" height="8" fill="#6cc24a"/><rect x="106" y="124" width="8" height="8" fill="#6cc24a"/><rect x="114" y="124" width="8" height="8" fill="#6cc24a"/><rect x="122" y="124" width="8" height="8" fill="#6cc24a"/><rect x="130" y="124" width="8" height="8" fill="#6cc24a"/><rect x="138" y="124" width="8" height="8" fill="#6cc24a"/><rect x="146" y="124" width="8" height="8" fill="#6cc24a"/><rect x="154" y="124" width="8" height="8" fill="#6cc24a"/><rect x="162" y="124" width="8" height="8" fill="#4a9e34"/><rect x="170" y="124" width="8" height="8" fill="#9be36a"/><rect x="82" y="132" width="8" height="8" fill="#9be36a"/><rect x="90" y="132" width="8" height="8" fill="#6cc24a"/><rect x="98" y="132" width="8" height="8" fill="#6cc24a"/><rect x="106" y="132" width="8" height="8" fill="#6cc24a"/><rect x="114" y="132" width="8" height="8" fill="#6cc24a"/><rect x="122" y="132" width="8" height="8" fill="#6cc24a"/><rect x="130" y="132" width="8" height="8" fill="#6cc24a"/><rect x="138" y="132" width="8" height="8" fill="#6cc24a"/><rect x="146" y="132" width="8" height="8" fill="#6cc24a"/><rect x="154" y="132" width="8" height="8" fill="#6cc24a"/><rect x="162" y="132" width="8" height="8" fill="#6cc24a"/><rect x="170" y="132" width="8" height="8" fill="#9be36a"/><rect x="90" y="140" width="8" height="8" fill="#6cc24a"/><rect x="98" y="140" width="8" height="8" fill="#6cc24a"/><rect x="106" y="140" width="8" height="8" fill="#6cc24a"/><rect x="114" y="140" width="8" height="8" fill="#6cc24a"/><rect x="122" y="140" width="8" height="8" fill="#6cc24a"/><rect x="130" y="140" width="8" height="8" fill="#6cc24a"/><rect x="138" y="140" width="8" height="8" fill="#6cc24a"/><rect x="146" y="140" width="8" height="8" fill="#6cc24a"/><rect x="154" y="140" width="8" height="8" fill="#6cc24a"/><rect x="162" y="140" width="8" height="8" fill="#6cc24a"/><rect x="90" y="148" width="8" height="8" fill="#6cc24a"/><rect x="98" y="148" width="8" height="8" fill="#6cc24a"/><rect x="106" y="148" width="8" height="8" fill="#22311f"/><rect x="114" y="148" width="8" height="8" fill="#6cc24a"/><rect x="122" y="148" width="8" height="8" fill="#6cc24a"/><rect x="130" y="148" width="8" height="8" fill="#6cc24a"/><rect x="138" y="148" width="8" height="8" fill="#6cc24a"/><rect x="146" y="148" width="8" height="8" fill="#22311f"/><rect x="154" y="148" width="8" height="8" fill="#6cc24a"/><rect x="162" y="148" width="8" height="8" fill="#6cc24a"/><rect x="90" y="156" width="8" height="8" fill="#6cc24a"/><rect x="98" y="156" width="8" height="8" fill="#6cc24a"/><rect x="106" y="156" width="8" height="8" fill="#6cc24a"/><rect x="114" y="156" width="8" height="8" fill="#6cc24a"/><rect x="122" y="156" width="8" height="8" fill="#6cc24a"/><rect x="130" y="156" width="8" height="8" fill="#6cc24a"/><rect x="138" y="156" width="8" height="8" fill="#6cc24a"/><rect x="146" y="156" width="8" height="8" fill="#6cc24a"/><rect x="154" y="156" width="8" height="8" fill="#6cc24a"/><rect x="162" y="156" width="8" height="8" fill="#6cc24a"/><rect x="98" y="164" width="8" height="8" fill="#6cc24a"/><rect x="106" y="164" width="8" height="8" fill="#6cc24a"/><rect x="114" y="164" width="8" height="8" fill="#22311f"/><rect x="122" y="164" width="8" height="8" fill="#22311f"/><rect x="130" y="164" width="8" height="8" fill="#22311f"/><rect x="138" y="164" width="8" height="8" fill="#22311f"/><rect x="146" y="164" width="8" height="8" fill="#6cc24a"/><rect x="154" y="164" width="8" height="8" fill="#6cc24a"/><rect x="106" y="172" width="8" height="8" fill="#4a9e34"/><rect x="114" y="172" width="8" height="8" fill="#6cc24a"/><rect x="122" y="172" width="8" height="8" fill="#6cc24a"/><rect x="130" y="172" width="8" height="8" fill="#6cc24a"/><rect x="138" y="172" width="8" height="8" fill="#6cc24a"/><rect x="146" y="172" width="8" height="8" fill="#4a9e34"/><rect x="122" y="180" width="8" height="8" fill="#5a8a3a"/><rect x="122" y="188" width="8" height="8" fill="#5a8a3a"/><rect x="98" y="196" width="8" height="8" fill="#cf7a4a"/><rect x="106" y="196" width="8" height="8" fill="#cf7a4a"/><rect x="114" y="196" width="8" height="8" fill="#cf7a4a"/><rect x="122" y="196" width="8" height="8" fill="#cf7a4a"/><rect x="130" y="196" width="8" height="8" fill="#cf7a4a"/><rect x="138" y="196" width="8" height="8" fill="#cf7a4a"/><rect x="146" y="196" width="8" height="8" fill="#cf7a4a"/><rect x="154" y="196" width="8" height="8" fill="#cf7a4a"/><rect x="98" y="204" width="8" height="8" fill="#cf7a4a"/><rect x="106" y="204" width="8" height="8" fill="#a85e34"/><rect x="114" y="204" width="8" height="8" fill="#a85e34"/><rect x="122" y="204" width="8" height="8" fill="#a85e34"/><rect x="130" y="204" width="8" height="8" fill="#a85e34"/><rect x="138" y="204" width="8" height="8" fill="#a85e34"/><rect x="146" y="204" width="8" height="8" fill="#a85e34"/><rect x="154" y="204" width="8" height="8" fill="#cf7a4a"/><rect x="106" y="212" width="8" height="8" fill="#cf7a4a"/><rect x="114" y="212" width="8" height="8" fill="#cf7a4a"/><rect x="122" y="212" width="8" height="8" fill="#cf7a4a"/><rect x="130" y="212" width="8" height="8" fill="#cf7a4a"/><rect x="138" y="212" width="8" height="8" fill="#cf7a4a"/><rect x="146" y="212" width="8" height="8" fill="#cf7a4a"/>
<text x="130" y="248" text-anchor="middle" font-family="ui-monospace, Menlo, monospace" font-size="12" fill="#8b949e">Sprout · thriving · 91</text>
</svg>
